# xmcd CD database file
#
# Track frame offsets:
#	150
#	45194
#	60890
#	140454
#	198430
#
# Disc length: 3623 seconds
#
# Revision: 0
# Processed by: cddbd v1.5.2PL0 Copyright (c) Steve Scherf et al.
# Submitted via: CDex 1.51
#
DISCID=370e2505
DTITLE=John Coltrane - Live at Sutherland Lounge [CD3)
DYEAR=1961
DGENRE=Jazz
TTITLE0=Impressions
TTITLE1=I want to talk about you
TTITLE2=Greensleeves #2
TTITLE3=Summertime
TTITLE4=Impressions #2
EXTD=YEAR: 1961
EXTT0=
EXTT1=
EXTT2=
EXTT3=
EXTT4=
PLAYORDER=
